<?xml version="1.0" encoding="UTF-8" standalone="no"?>
<!-- Created with Inkscape (http://www.inkscape.org/) -->
<svg
   xmlns:svg="http://www.w3.org/2000/svg"
   xmlns="http://www.w3.org/2000/svg"
   version="1.0"
   width="1100"
   height="1100"
   id="svg2">
  <defs
     id="defs4" />
  <g
     id="layer1">
    <path
       d="M 550,50 C 548.21874,50 546.43313,50.012636 544.65625,50.03125 C 542.8725,50.049936 541.09174,50.087649 539.3125,50.125 C 535.75768,50.199624 532.22378,50.320181 528.6875,50.46875 C 262.56325,61.649399 50.000001,281.14201 50,550 C 49.999999,633.45278 70.483949,712.15384 106.6875,781.34375 C 106.94878,781.8431 107.20582,782.34536 107.46875,782.84375 C 107.52958,782.95906 107.59533,783.07224 107.65625,783.1875 C 108.24608,784.3034 108.83944,785.42022 109.4375,786.53125 C 110.19894,787.94574 110.97537,789.34372 111.75,790.75 C 112.60864,792.30881 113.46901,793.85763 114.34375,795.40625 C 114.98565,796.54266 115.63074,797.68162 116.28125,798.8125 C 116.51425,799.21763 116.73465,799.62684 116.96875,800.03125 C 117.74344,801.36932 118.5258,802.70106 119.3125,804.03125 C 120.33246,805.75612 121.36632,807.47615 122.40625,809.1875 C 122.88946,809.98257 123.38749,810.77034 123.875,811.5625 C 124.31624,812.27955 124.74278,813.00415 125.1875,813.71875 C 126.12543,815.22574 127.07779,816.72251 128.03125,818.21875 C 216.81004,957.53744 372.66946,1050 550,1050 C 727.32456,1050 883.15718,957.52959 971.9375,818.21875 C 972.75924,816.92927 973.59596,815.64151 974.40625,814.34375 C 974.53478,814.13793 974.65302,813.92477 974.78125,813.71875 C 976.65353,810.71072 978.50278,807.67519 980.3125,804.625 C 981.21765,803.09941 982.11067,801.56722 983,800.03125 C 986.55949,793.88367 989.97967,787.65308 993.2813,781.34375 C 1029.489,712.15075 1050,633.45793 1050,550 C 1050,281.14201 837.43674,61.649402 571.3125,50.46875 L 571.3125,50.4375 C 570.64724,50.409551 569.97833,50.400191 569.3125,50.375 C 568.20765,50.33296 567.10666,50.284847 566,50.25 C 564.96836,50.218006 563.93936,50.181828 562.90625,50.15625 C 562.81265,50.153876 562.71861,50.158572 562.625,50.15625 C 561.14783,50.120509 559.66783,50.085392 558.1875,50.0625 C 557.61558,50.053656 557.04115,50.038206 556.46875,50.03125 C 556.09488,50.026509 555.71782,50.035169 555.34375,50.03125 C 553.56322,50.013438 551.7855,50 550,50 z M 524.875,90.6875 L 503.1875,320 L 285,320 L 494.40625,409.75 C 489.90471,441.77347 479.25781,472.89255 462.75,501.1875 C 447.20064,527.83964 426.42335,551.96125 400.78125,571.96875 L 218.3125,435.5 L 327.40625,624.46875 L 139.625,757.9375 C 107.88841,695.47366 90,624.81927 90,550 C 90,304.51109 282.62619,103.74968 524.875,90.6875 z M 575.125,90.6875 C 817.37381,103.74967 1010,304.51109 1010,550 C 1010,624.81927 992.1116,695.47366 960.375,757.9375 L 772.5625,624.46875 L 881.6875,435.5 L 699.21875,572 C 673.73942,552.09103 652.12349,527.31557 635.875,498.875 C 620.55705,472.06317 610.06113,441.98803 605.5625,409.75 L 815,320 L 596.78125,320 L 575.125,90.6875 z M 551.34375,649.9375 C 582.22269,650.07767 613.52061,655.9966 643.6875,668.21875 L 616.6875,894.46875 L 725.78125,705.53125 L 935.21875,801.40625 C 853.06027,926.98737 711.16648,1010 550,1010 C 388.83352,1010 246.93974,926.98737 164.78125,801.40625 L 374.21875,705.53125 L 483.3125,894.46875 L 456.3125,668.25 C 486.30339,656.1306 518.57743,649.78876 551.34375,649.9375 z "
       style="opacity:1;fill:#000000;fill-opacity:1;fill-rule:nonzero;stroke:none;stroke-width:20;stroke-linecap:round;stroke-linejoin:round;stroke-miterlimit:4;stroke-dasharray:none;stroke-opacity:1"
       id="path5131" />
  </g>
</svg>
